<svg width="200" height="185" viewBox="0 0 200 185" fill="none" xmlns="http://www.w3.org/2000/svg">
<g id="&#240;&#159;&#166;&#134; icon &#34;dog&#34;">
<path id="Vector" d="M42.7917 44.6521L67.2783 9.28042C69.0932 6.66428 71.5054 4.51831 74.3151 3.02034C77.1247 1.52236 80.2509 0.71552 83.4346 0.666666L129.904 0H130C153.991 0 172.399 4.01292 184.254 23.5975C195.292 41.8275 200 72.8812 200 127.431V134.098H184.768L194.573 184.098H180.986L171.18 134.098H166.667C155.778 134.195 145.289 130.006 137.463 122.435C130.389 115.665 125.286 106.405 122.705 95.6538L122.682 95.5571L111.248 40.7646H124.868L135.693 92.6346C138.99 106.251 148.847 120.765 166.667 120.765H186.642C186.28 73.5704 181.983 45.59 172.848 30.5004C165.181 17.8337 153.975 13.3375 130.046 13.3313L83.6263 13.9979C82.565 14.0141 81.5229 14.283 80.5863 14.7823C79.6497 15.2816 78.8457 15.997 78.2408 16.8692L50.5417 56.8771L13.3333 63.0788V70.145L19.5383 103.237C21.3696 113.004 24.5 117.924 37.3375 119.466L89.965 128.47L90.3129 184.098H76.9796L76.7017 139.726L35.5767 132.684C26.26 131.539 19.3863 128.536 14.5658 123.508C10.445 119.209 7.93709 113.716 6.43292 105.695L0 71.3842V51.7838L42.7917 44.6521Z" fill="#191919"/>
</g>
</svg>
