<svg width="67" height="57" viewBox="0 0 67 57" fill="none" xmlns="http://www.w3.org/2000/svg">
<g id="&#240;&#159;&#166;&#134; icon &#34;twitter icon&#34;">
<path id="Vector" d="M66.6248 7.51629C64.1859 8.63076 61.5749 9.39749 58.8231 9.74523C61.6309 7.98929 63.7776 5.21176 64.8013 1.90291C62.1675 3.50118 59.2541 4.65884 56.1562 5.31327C53.6861 2.55734 50.1551 0.822998 46.2366 0.822998C38.725 0.822998 32.6369 7.1664 32.6369 14.985C32.6369 16.1102 32.7674 17.1901 32.9933 18.2139C21.6937 17.6631 11.6768 12.0044 4.97741 3.45582C3.80041 5.53789 3.1311 7.95689 3.1311 10.5897C3.1311 15.5163 5.5369 19.8359 9.17358 22.3759C6.95013 22.3089 4.85722 21.6674 3.02334 20.6113V20.7819C3.02334 27.6523 7.70647 33.3802 13.923 34.6847C12.7895 34.9979 11.5794 35.1793 10.3506 35.1793C9.47819 35.1793 8.64517 35.0907 7.81423 34.9309C9.56315 40.5551 14.5695 44.6501 20.5374 44.7732C15.8978 48.5637 10.017 50.8229 3.68023 50.8229C2.60062 50.8229 1.52308 50.7689 0.441406 50.6328C6.48596 54.6501 13.6205 57 21.3269 57C46.3319 57 59.9959 35.4126 59.9959 16.7171C59.9959 16.121 59.9959 15.5141 59.9524 14.905C62.6193 12.9245 64.9277 10.4148 66.7512 7.57028L66.6248 7.51629Z" fill="white"/>
</g>
</svg>
