<svg width="67" height="70" viewBox="0 0 67 70" fill="none" xmlns="http://www.w3.org/2000/svg">
<g id="&#240;&#159;&#166;&#134; icon &#34;logo instagram&#34;">
<path id="Vector" d="M47.4216 5.75901C51.0823 5.77041 54.59 7.29119 57.1786 9.98922C59.7671 12.6872 61.2262 16.3433 61.2371 20.1589V48.9555C61.2262 52.771 59.7671 56.4271 57.1786 59.1251C54.59 61.8231 51.0823 63.3439 47.4216 63.3553H19.7935C16.1327 63.3439 12.6251 61.8231 10.0365 59.1251C7.44796 56.4271 5.98889 52.771 5.97796 48.9555V20.1589C5.98889 16.3433 7.44796 12.6872 10.0365 9.98922C12.6251 7.29119 16.1327 5.77041 19.7935 5.75901H47.4216ZM47.4216 0H19.7935C9.1558 0 0.452637 9.07125 0.452637 20.1589V48.9555C0.452637 60.0431 9.1558 69.1143 19.7935 69.1143H47.4216C58.0593 69.1143 66.7624 60.0431 66.7624 48.9555V20.1589C66.7624 9.07125 58.0593 0 47.4216 0Z" fill="white"/>
<path id="Vector_2" d="M51.5655 20.1589C50.7458 20.1589 49.9446 19.9056 49.263 19.431C48.5815 18.9563 48.0503 18.2817 47.7366 17.4924C47.4229 16.703 47.3409 15.8345 47.5008 14.9966C47.6607 14.1587 48.0554 13.389 48.635 12.7848C49.2146 12.1807 49.9531 11.7693 50.757 11.6027C51.5609 11.436 52.3942 11.5215 53.1515 11.8485C53.9088 12.1754 54.556 12.7291 55.0114 13.4394C55.4668 14.1498 55.7099 14.985 55.7099 15.8393C55.711 16.4069 55.6046 16.9692 55.3968 17.4938C55.1889 18.0184 54.8837 18.4951 54.4986 18.8965C54.1136 19.2978 53.6562 19.616 53.1529 19.8326C52.6495 20.0493 52.1101 20.1602 51.5655 20.1589Z" fill="white"/>
<path id="Vector_3" d="M33.6077 23.0377C35.7936 23.0377 37.9305 23.7133 39.748 24.9791C41.5655 26.2449 42.9821 28.044 43.8186 30.1489C44.6551 32.2538 44.8739 34.57 44.4475 36.8046C44.021 39.0392 42.9684 41.0918 41.4228 42.7028C39.8771 44.3139 37.9078 45.411 35.7639 45.8555C33.62 46.3 31.3978 46.0719 29.3783 45.2C27.3588 44.3281 25.6326 42.8516 24.4182 40.9572C23.2038 39.0628 22.5556 36.8356 22.5556 34.5573C22.5587 31.5031 23.7242 28.5749 25.7962 26.4153C27.8682 24.2557 30.6775 23.041 33.6077 23.0377ZM33.6077 17.2787C30.329 17.2787 27.1239 18.2921 24.3978 20.1907C21.6716 22.0892 19.5469 24.7878 18.2922 27.945C17.0375 31.1023 16.7092 34.5764 17.3488 37.9282C17.9885 41.2799 19.5673 44.3586 21.8857 46.7751C24.2041 49.1915 27.1579 50.8372 30.3736 51.5039C33.5893 52.1706 36.9225 51.8284 39.9516 50.5206C42.9808 49.2128 45.5698 46.9982 47.3914 44.1567C49.2129 41.3153 50.1852 37.9747 50.1852 34.5573C50.1852 29.9747 48.4386 25.5798 45.3298 22.3395C42.2209 19.0991 38.0043 17.2787 33.6077 17.2787Z" fill="white"/>
</g>
</svg>
