<svg width="67" height="70" viewBox="0 0 67 70" fill="none" xmlns="http://www.w3.org/2000/svg">
<g id="&#240;&#159;&#166;&#134; icon &#34;social facebook icon&#34;">
<path id="Vector" d="M62.9033 0H3.91335C1.89182 0 0.253418 1.7077 0.253418 3.81473V65.3006C0.253418 67.4066 1.89182 69.1143 3.91335 69.1143H35.6711V42.3498H27.0297V31.9193H35.6711V24.2265C35.6711 15.2992 40.9022 10.4391 48.5426 10.4391C52.2025 10.4391 55.3477 10.7223 56.2649 10.85V20.1795L50.9657 20.1823C46.8103 20.1823 46.0063 22.2404 46.0063 25.2603V31.9203H55.9159L54.6256 42.3508H46.0063V69.1143H62.9042C64.9248 69.1143 66.5632 67.4066 66.5632 65.2996V3.81473C66.5632 1.7077 64.9248 0 62.9033 0Z" fill="white"/>
</g>
</svg>
